<svg width="278" height="278" viewBox="0 0 278 278" fill="none" xmlns="http://www.w3.org/2000/svg">
<mask id="mask0_352_1474" style="mask-type:luminance" maskUnits="userSpaceOnUse" x="0" y="0" width="278" height="279">
<path fill-rule="evenodd" clip-rule="evenodd" d="M0 0.000244141H278V278H0V0.000244141Z" fill="white"/>
</mask>
<g mask="url(#mask0_352_1474)">
<path fill-rule="evenodd" clip-rule="evenodd" d="M139 0.000244141C62.2326 0.000244141 0 62.2329 0 139C0 215.768 62.2326 278 139 278C215.767 278 278 215.768 278 139C278 62.2329 215.767 0.000244141 139 0.000244141" fill="#EFF3F9"/>
</g>
<path fill-rule="evenodd" clip-rule="evenodd" d="M105.924 231.359V231.359C95.9398 231.359 87.8457 223.265 87.8457 213.281C87.8457 203.297 95.9398 195.203 105.924 195.203C115.908 195.203 124.002 203.297 124.002 213.281C124.002 223.265 115.908 231.359 105.924 231.359" fill="white"/>
<path fill-rule="evenodd" clip-rule="evenodd" d="M69.3657 193.943V193.943C66.4516 193.943 64.0894 191.581 64.0894 188.666C64.0894 185.752 66.4516 183.389 69.3657 183.389C72.2807 183.389 74.6429 185.752 74.6429 188.666C74.6429 191.581 72.2807 193.943 69.3657 193.943" fill="white"/>
<path fill-rule="evenodd" clip-rule="evenodd" d="M155.908 220.314V220.314C153.966 220.314 152.392 218.739 152.392 216.797C152.392 214.855 153.966 213.281 155.908 213.281C157.85 213.281 159.424 214.855 159.424 216.797C159.424 218.739 157.85 220.314 155.908 220.314" fill="white"/>
<path fill-rule="evenodd" clip-rule="evenodd" d="M204.568 54.2927V54.2927C202.626 54.2927 201.052 52.7187 201.052 50.7767C201.052 48.8347 202.626 47.2607 204.568 47.2607C206.51 47.2607 208.084 48.8347 208.084 50.7767C208.084 52.7187 206.51 54.2927 204.568 54.2927" fill="white"/>
<path fill-rule="evenodd" clip-rule="evenodd" d="M183.568 94.3011H191.441V93.6157C191.441 91.3025 189.566 89.4272 187.252 89.4272H164.654C162.341 89.4272 160.466 91.3025 160.466 93.6157V160.412H178.028V99.841C178.028 96.7806 180.508 94.3011 183.568 94.3011" fill="#E0E8F6"/>
<mask id="mask1_352_1474" style="mask-type:luminance" maskUnits="userSpaceOnUse" x="0" y="0" width="278" height="278">
<path fill-rule="evenodd" clip-rule="evenodd" d="M0 278H278V0H0V278Z" fill="white"/>
</mask>
<g mask="url(#mask1_352_1474)">
<path fill-rule="evenodd" clip-rule="evenodd" d="M136.691 160.412H155.897V102.622H136.691V160.412Z" fill="#D0DBF0"/>
<path fill-rule="evenodd" clip-rule="evenodd" d="M184.389 86.2503H167.519C166.873 86.2503 166.351 85.7272 166.351 85.0828V78.2373C166.351 77.5929 166.873 77.0698 167.519 77.0698H184.389C185.034 77.0698 185.556 77.5929 185.556 78.2373V85.0828C185.556 85.7272 185.034 86.2503 184.389 86.2503" fill="#E0E8F6"/>
<path fill-rule="evenodd" clip-rule="evenodd" d="M132.53 160.413H93.4297V62.0279C93.4297 59.869 95.4584 58.2837 97.5539 58.8068L130.013 66.9041C131.492 67.2729 132.53 68.601 132.53 70.1252V160.413Z" fill="#D0DBF0"/>
<path fill-rule="evenodd" clip-rule="evenodd" d="M76.0972 160.413V126.406C76.0972 123.356 78.5686 120.884 81.6186 120.884H87.8824V160.413H76.0972Z" fill="#E0E8F6"/>
<path fill-rule="evenodd" clip-rule="evenodd" d="M174.567 153.94V153.94C173.757 153.94 173.101 153.284 173.101 152.474V100.853C173.101 100.043 173.757 99.3862 174.567 99.3862C175.377 99.3862 176.033 100.043 176.033 100.853V152.474C176.033 153.284 175.377 153.94 174.567 153.94" fill="#C0CBE2"/>
<path fill-rule="evenodd" clip-rule="evenodd" d="M166.43 153.94V153.94C165.62 153.94 164.964 153.284 164.964 152.474V100.853C164.964 100.043 165.62 99.3862 166.43 99.3862C167.24 99.3862 167.897 100.043 167.897 100.853V152.474C167.897 153.284 167.24 153.94 166.43 153.94" fill="#C0CBE2"/>
<path fill-rule="evenodd" clip-rule="evenodd" d="M125.115 81.6598H101.966C100.698 81.6598 99.6714 80.6322 99.6714 79.3651C99.6714 78.0972 100.698 77.0696 101.966 77.0696H125.115C126.383 77.0696 127.41 78.0972 127.41 79.3651C127.41 80.6322 126.383 81.6598 125.115 81.6598" fill="#C1CAE7"/>
<path fill-rule="evenodd" clip-rule="evenodd" d="M125.115 91.7218H101.966C100.698 91.7218 99.6714 90.6942 99.6714 89.4271C99.6714 88.1592 100.698 87.1316 101.966 87.1316H125.115C126.383 87.1316 127.41 88.1592 127.41 89.4271C127.41 90.6942 126.383 91.7218 125.115 91.7218" fill="#C1CAE7"/>
<path fill-rule="evenodd" clip-rule="evenodd" d="M125.115 101.784H101.966C100.698 101.784 99.6714 100.756 99.6714 99.4889C99.6714 98.221 100.698 97.1934 101.966 97.1934H125.115C126.383 97.1934 127.41 98.221 127.41 99.4889C127.41 100.756 126.383 101.784 125.115 101.784" fill="#C1CAE7"/>
<path fill-rule="evenodd" clip-rule="evenodd" d="M125.115 111.846H101.966C100.698 111.846 99.6714 110.818 99.6714 109.55C99.6714 108.282 100.698 107.256 101.966 107.256H125.115C126.383 107.256 127.41 108.282 127.41 109.55C127.41 110.818 126.383 111.846 125.115 111.846" fill="#C1CAE7"/>
<path fill-rule="evenodd" clip-rule="evenodd" d="M125.115 121.908H101.966C100.698 121.908 99.6714 120.88 99.6714 119.613C99.6714 118.345 100.698 117.317 101.966 117.317H125.115C126.383 117.317 127.41 118.345 127.41 119.613C127.41 120.88 126.383 121.908 125.115 121.908" fill="#C1CAE7"/>
<path fill-rule="evenodd" clip-rule="evenodd" d="M125.115 131.969H101.966C100.698 131.969 99.6714 130.942 99.6714 129.675C99.6714 128.407 100.698 127.379 101.966 127.379H125.115C126.383 127.379 127.41 128.407 127.41 129.675C127.41 130.942 126.383 131.969 125.115 131.969" fill="#C1CAE7"/>
<path fill-rule="evenodd" clip-rule="evenodd" d="M125.115 142.032H101.966C100.698 142.032 99.6714 141.004 99.6714 139.737C99.6714 138.469 100.698 137.441 101.966 137.441H125.115C126.383 137.441 127.41 138.469 127.41 139.737C127.41 141.004 126.383 142.032 125.115 142.032" fill="#C1CAE7"/>
<path fill-rule="evenodd" clip-rule="evenodd" d="M125.115 152.093H101.966C100.698 152.093 99.6714 151.066 99.6714 149.798C99.6714 148.53 100.698 147.503 101.966 147.503H125.115C126.383 147.503 127.41 148.53 127.41 149.798C127.41 151.066 126.383 152.093 125.115 152.093" fill="#C1CAE7"/>
<path fill-rule="evenodd" clip-rule="evenodd" d="M67.0778 160.413H36.1025V99.308C36.1025 96.5425 38.3442 94.3008 41.1098 94.3008H62.0714C64.8362 94.3008 67.0778 96.5425 67.0778 99.308V160.413Z" fill="#E0E8F6"/>
<path fill-rule="evenodd" clip-rule="evenodd" d="M61.2132 107.475H41.9677C40.8895 107.475 40.0161 106.602 40.0161 105.524V105.45C40.0161 104.372 40.8895 103.497 41.9677 103.497H61.2132C62.2907 103.497 63.1648 104.372 63.1648 105.45V105.524C63.1648 106.602 62.2907 107.475 61.2132 107.475" fill="#C1CAE7"/>
<path fill-rule="evenodd" clip-rule="evenodd" d="M61.2132 116.195H41.9677C40.8895 116.195 40.0161 115.32 40.0161 114.243V114.169C40.0161 113.091 40.8895 112.217 41.9677 112.217H61.2132C62.2907 112.217 63.1648 113.091 63.1648 114.169V114.243C63.1648 115.32 62.2907 116.195 61.2132 116.195" fill="#C1CAE7"/>
<path fill-rule="evenodd" clip-rule="evenodd" d="M61.2132 124.914H41.9677C40.8895 124.914 40.0161 124.04 40.0161 122.962V122.888C40.0161 121.81 40.8895 120.936 41.9677 120.936H61.2132C62.2907 120.936 63.1648 121.81 63.1648 122.888V122.962C63.1648 124.04 62.2907 124.914 61.2132 124.914" fill="#C1CAE7"/>
<path fill-rule="evenodd" clip-rule="evenodd" d="M61.2132 133.633H41.9677C40.8895 133.633 40.0161 132.759 40.0161 131.682V131.607C40.0161 130.529 40.8895 129.655 41.9677 129.655H61.2132C62.2907 129.655 63.1648 130.529 63.1648 131.607V131.682C63.1648 132.759 62.2907 133.633 61.2132 133.633" fill="#C1CAE7"/>
<path fill-rule="evenodd" clip-rule="evenodd" d="M61.2132 142.352H41.9677C40.8895 142.352 40.0161 141.478 40.0161 140.4V140.327C40.0161 139.249 40.8895 138.375 41.9677 138.375H61.2132C62.2907 138.375 63.1648 139.249 63.1648 140.327V140.4C63.1648 141.478 62.2907 142.352 61.2132 142.352" fill="#C1CAE7"/>
<path fill-rule="evenodd" clip-rule="evenodd" d="M61.2132 151.071H41.9677C40.8895 151.071 40.0161 150.197 40.0161 149.12V149.046C40.0161 147.968 40.8895 147.094 41.9677 147.094H61.2132C62.2907 147.094 63.1648 147.968 63.1648 149.046V149.12C63.1648 150.197 62.2907 151.071 61.2132 151.071" fill="#C1CAE7"/>
<path fill-rule="evenodd" clip-rule="evenodd" d="M217.816 163.186H179.901V102.614C179.901 99.5548 182.38 97.0745 185.44 97.0745H212.276C215.335 97.0745 217.816 99.5548 217.816 102.614V163.186Z" fill="#E0E8F6"/>
<path fill-rule="evenodd" clip-rule="evenodd" d="M211.037 110.249H186.68C185.581 110.249 184.691 109.359 184.691 108.261C184.691 107.162 185.581 106.272 186.68 106.272H211.037C212.136 106.272 213.027 107.162 213.027 108.261C213.027 109.359 212.136 110.249 211.037 110.249" fill="#C1CAE7"/>
<path fill-rule="evenodd" clip-rule="evenodd" d="M211.037 118.968H186.68C185.581 118.968 184.691 118.078 184.691 116.98C184.691 115.881 185.581 114.99 186.68 114.99H211.037C212.136 114.99 213.027 115.881 213.027 116.98C213.027 118.078 212.136 118.968 211.037 118.968" fill="#C1CAE7"/>
<path fill-rule="evenodd" clip-rule="evenodd" d="M211.037 127.688H186.68C185.581 127.688 184.691 126.797 184.691 125.699C184.691 124.601 185.581 123.71 186.68 123.71H211.037C212.136 123.71 213.027 124.601 213.027 125.699C213.027 126.797 212.136 127.688 211.037 127.688" fill="#C1CAE7"/>
<path fill-rule="evenodd" clip-rule="evenodd" d="M85.5183 97.1936C82.4836 97.1936 80.0226 94.7334 80.0226 91.6987V81.624H59.6812V90.8141H65.0033C68.1762 90.8141 70.7481 93.386 70.7481 96.5589V160.412H73.782V124.324C73.782 120.955 76.5114 118.225 79.8787 118.225H87.8821V97.1936H85.5183Z" fill="#D0DBF0"/>
<path fill-rule="evenodd" clip-rule="evenodd" d="M181.456 71.1192H170.451C169.806 71.1192 169.284 70.5961 169.284 69.9517V64.5307C169.284 63.8863 169.806 63.3633 170.451 63.3633H181.456C182.101 63.3633 182.623 63.8863 182.623 64.5307V69.9517C182.623 70.5961 182.101 71.1192 181.456 71.1192" fill="#E0E8F6"/>
<path fill-rule="evenodd" clip-rule="evenodd" d="M178.028 61.1793H173.878V50.3944C173.878 49.9549 174.234 49.5981 174.674 49.5981H177.233C177.672 49.5981 178.028 49.9549 178.028 50.3944V61.1793Z" fill="#E0E8F6"/>
<path fill-rule="evenodd" clip-rule="evenodd" d="M188.321 170.583H66.2852C64.5626 170.583 63.1646 169.187 63.1646 167.462C63.1646 165.739 64.5626 164.342 66.2852 164.342H188.321C190.044 164.342 191.441 165.739 191.441 167.462C191.441 169.187 190.044 170.583 188.321 170.583" fill="#7E89A0"/>
<path fill-rule="evenodd" clip-rule="evenodd" d="M262.6 176.131C262.6 167.843 255.881 161.123 247.593 161.123H236.162H228.427H31.6045C29.2375 161.123 27.3188 159.205 27.3188 156.838C27.3188 154.471 29.2375 152.553 31.6045 152.553H32.8668V146.117H24.7582C16.4696 146.117 9.75098 152.835 9.75098 161.123C9.75098 169.412 16.4696 176.131 24.7582 176.131H232.586H243.307C245.675 176.131 247.593 178.05 247.593 180.416C247.593 182.783 245.675 184.702 243.307 184.702H235.284H214.188C212.41 184.702 210.969 186.142 210.969 187.92C210.969 189.698 212.41 191.138 214.188 191.138H247.77V191.13C255.976 191.033 262.6 184.359 262.6 176.131" fill="#919DB6"/>
<path fill-rule="evenodd" clip-rule="evenodd" d="M198.547 184.702H177.784C176.007 184.702 174.566 186.142 174.566 187.92C174.566 189.698 176.007 191.138 177.784 191.138H198.547C200.324 191.138 201.765 189.698 201.765 187.92C201.765 186.142 200.324 184.702 198.547 184.702" fill="#919DB6"/>
<path fill-rule="evenodd" clip-rule="evenodd" d="M164.306 231.151H106.92C98.5263 231.151 91.7217 224.346 91.7217 215.952V73.6146C91.7217 65.2208 98.5263 58.417 106.92 58.417H164.306C172.7 58.417 179.505 65.2208 179.505 73.6146V215.952C179.505 224.346 172.7 231.151 164.306 231.151" fill="#535565"/>
<path fill-rule="evenodd" clip-rule="evenodd" d="M161.022 226.699H110.204C102.454 226.699 96.1729 220.418 96.1729 212.668V76.8991C96.1729 69.1497 102.454 62.8682 110.204 62.8682H161.022C168.772 62.8682 175.053 69.1497 175.053 76.8991V212.668C175.053 220.418 168.772 226.699 161.022 226.699" fill="#FFE3E0"/>
<path fill-rule="evenodd" clip-rule="evenodd" d="M161.022 226.699H110.204C102.454 226.699 96.1729 220.418 96.1729 212.668V76.8991C96.1729 69.1497 102.454 62.8682 110.204 62.8682H161.022C168.772 62.8682 175.053 69.1497 175.053 76.8991V212.668C175.053 220.418 168.772 226.699 161.022 226.699Z" fill="#FFC200"/>
<path fill-rule="evenodd" clip-rule="evenodd" d="M148.277 69.0356H122.949C119.778 69.0356 117.207 66.4645 117.207 63.294V60.7446H154.019V63.294C154.019 66.4645 151.448 69.0356 148.277 69.0356" fill="#535565"/>
<path fill-rule="evenodd" clip-rule="evenodd" d="M159.115 203.644H112.111C110.182 203.644 108.617 202.007 108.617 199.987V151.658C108.617 149.638 110.182 148 112.111 148H159.115C161.044 148 162.609 149.638 162.609 151.658V199.987C162.609 202.007 161.044 203.644 159.115 203.644" fill="#E5E5E5"/>
<path fill-rule="evenodd" clip-rule="evenodd" d="M157.864 99.323H113.362C112.284 99.323 111.41 98.4496 111.41 97.3714C111.41 96.2931 112.284 95.4189 113.362 95.4189H157.864C158.943 95.4189 159.817 96.2931 159.817 97.3714C159.817 98.4496 158.943 99.323 157.864 99.323" fill="white"/>
<path fill-rule="evenodd" clip-rule="evenodd" d="M148.233 108.377H122.993C121.915 108.377 121.041 107.504 121.041 106.425C121.041 105.347 121.915 104.473 122.993 104.473H148.233C149.311 104.473 150.185 105.347 150.185 106.425C150.185 107.504 149.311 108.377 148.233 108.377" fill="white"/>
<path fill-rule="evenodd" clip-rule="evenodd" d="M162.479 207.43H108.747C106.744 207.43 105.122 205.748 105.122 203.673V154.86C105.122 152.786 106.744 151.104 108.747 151.104H162.479C164.481 151.104 166.104 152.786 166.104 154.86V203.673C166.104 205.748 164.481 207.43 162.479 207.43" fill="#EEEEEE"/>
<path fill-rule="evenodd" clip-rule="evenodd" d="M165.638 210.215H105.589C103.532 210.215 101.865 208.548 101.865 206.491V157.613C101.865 155.557 103.532 153.889 105.589 153.889H165.638C167.695 153.889 169.362 155.557 169.362 157.613V206.491C169.362 208.548 167.695 210.215 165.638 210.215" fill="white"/>
<path fill-rule="evenodd" clip-rule="evenodd" d="M114.707 173.82V173.82C110.571 173.82 107.218 170.467 107.218 166.331C107.218 162.195 110.571 158.841 114.707 158.841C118.842 158.841 122.196 162.195 122.196 166.331C122.196 170.467 118.842 173.82 114.707 173.82" fill="#EFEFEF"/>
<path fill-rule="evenodd" clip-rule="evenodd" d="M156.579 164.567H127.798C127.114 164.567 126.56 164.014 126.56 163.329C126.56 162.645 127.114 162.092 127.798 162.092H156.579C157.263 162.092 157.817 162.645 157.817 163.329C157.817 164.014 157.263 164.567 156.579 164.567" fill="#EFEFEF"/>
<path fill-rule="evenodd" clip-rule="evenodd" d="M101.864 179.107H169.361V178.925H101.864V179.107Z" fill="#E2E2E2"/>
<path fill-rule="evenodd" clip-rule="evenodd" d="M161.715 203.484H110.726C109.344 203.484 108.224 202.363 108.224 200.981V195.275C108.224 193.892 109.344 192.772 110.726 192.772H161.715C163.097 192.772 164.217 193.892 164.217 195.275V200.981C164.217 202.363 163.097 203.484 161.715 203.484" fill="#FFC200"/>
</g>
<path d="M128.649 199.47C129.832 199.47 130.651 198.822 130.807 197.75H129.929C129.791 198.353 129.315 198.711 128.652 198.711C127.785 198.711 127.237 198.006 127.237 196.882C127.237 195.765 127.789 195.057 128.649 195.057C129.298 195.057 129.808 195.47 129.926 196.098H130.807C130.696 195.022 129.811 194.297 128.649 194.297C127.226 194.297 126.321 195.286 126.321 196.882C126.321 198.489 127.22 199.47 128.649 199.47ZM133.028 199.443C134.121 199.443 134.808 198.725 134.808 197.548C134.808 196.376 134.114 195.654 133.028 195.654C131.942 195.654 131.248 196.379 131.248 197.548C131.248 198.721 131.935 199.443 133.028 199.443ZM133.028 198.756C132.462 198.756 132.126 198.312 132.126 197.548C132.126 196.792 132.462 196.337 133.028 196.337C133.59 196.337 133.93 196.788 133.93 197.548C133.93 198.312 133.593 198.756 133.028 198.756ZM135.363 199.387H136.227V197.281C136.227 196.75 136.532 196.389 137.035 196.389C137.535 196.389 137.774 196.681 137.774 197.201V199.387H138.638V197.028C138.638 196.178 138.176 195.661 137.365 195.661C136.799 195.661 136.424 195.897 136.209 196.351H136.192V195.709H135.363V199.387ZM139.571 199.387H140.435V196.376H141.119V195.709H140.421V195.418C140.421 195.137 140.55 195.016 140.845 195.016C140.949 195.016 141.042 195.026 141.115 195.036V194.415C140.987 194.394 140.852 194.384 140.699 194.384C139.894 194.384 139.571 194.676 139.571 195.376V195.709H139.068V196.376H139.571V199.387ZM141.715 199.387H142.579V195.709H141.715V199.387ZM142.145 195.227C142.412 195.227 142.627 195.019 142.627 194.759C142.627 194.492 142.412 194.287 142.145 194.287C141.881 194.287 141.666 194.492 141.666 194.759C141.666 195.019 141.881 195.227 142.145 195.227ZM143.304 199.387H144.168V197.267C144.168 196.747 144.463 196.431 144.952 196.431C145.097 196.431 145.229 196.452 145.302 196.48V195.699C145.236 195.682 145.143 195.668 145.032 195.668C144.598 195.668 144.268 195.918 144.15 196.351H144.133V195.709H143.304V199.387ZM126.404 207.387H127.268V205.156C127.268 204.709 127.56 204.386 127.976 204.386C128.378 204.386 128.628 204.639 128.628 205.052V207.387H129.468V205.135C129.468 204.695 129.752 204.386 130.169 204.386C130.592 204.386 130.828 204.643 130.828 205.097V207.387H131.692V204.886C131.692 204.15 131.216 203.661 130.491 203.661C129.961 203.661 129.523 203.942 129.346 204.396H129.326C129.19 203.928 128.819 203.661 128.299 203.661C127.809 203.661 127.41 203.928 127.251 204.358H127.233V203.709H126.404V207.387Z" fill="white"/>
<path fill-rule="evenodd" clip-rule="evenodd" d="M130.272 169.386C130.35 169.307 130.378 169.191 130.344 169.083C130.31 168.975 130.222 168.899 130.116 168.883L129.176 168.74C129.157 168.737 129.141 168.725 129.133 168.707L128.713 167.82C128.665 167.718 128.567 167.655 128.458 167.655C128.35 167.655 128.252 167.718 128.205 167.82L127.784 168.707C127.777 168.725 127.76 168.737 127.742 168.74L126.802 168.883C126.694 168.899 126.607 168.976 126.573 169.083C126.539 169.192 126.568 169.308 126.645 169.386L127.325 170.078C127.339 170.092 127.344 170.111 127.342 170.13L127.181 171.107C127.162 171.218 127.206 171.329 127.293 171.396C127.381 171.463 127.496 171.471 127.591 171.418L128.432 170.958C128.448 170.948 128.469 170.948 128.485 170.958L129.325 171.418C129.367 171.442 129.413 171.452 129.457 171.452C129.516 171.452 129.574 171.434 129.623 171.396C129.712 171.329 129.754 171.218 129.736 171.107L129.576 170.13C129.573 170.111 129.579 170.092 129.592 170.077L130.272 169.386Z" fill="#FFD400"/>
<path fill-rule="evenodd" clip-rule="evenodd" d="M134.774 169.386C134.853 169.307 134.881 169.191 134.847 169.083C134.813 168.975 134.725 168.899 134.619 168.883L133.679 168.74C133.66 168.737 133.644 168.725 133.636 168.707L133.216 167.82C133.168 167.718 133.07 167.655 132.961 167.655C132.853 167.655 132.755 167.718 132.708 167.82L132.287 168.707C132.279 168.725 132.263 168.737 132.245 168.74L131.305 168.883C131.197 168.899 131.11 168.976 131.076 169.083C131.042 169.192 131.07 169.308 131.148 169.386L131.828 170.078C131.842 170.092 131.847 170.111 131.845 170.13L131.684 171.107C131.665 171.218 131.709 171.329 131.796 171.396C131.884 171.463 131.998 171.471 132.094 171.418L132.935 170.958C132.951 170.948 132.971 170.948 132.988 170.958L133.828 171.418C133.87 171.442 133.916 171.452 133.96 171.452C134.019 171.452 134.077 171.434 134.126 171.396C134.214 171.329 134.257 171.218 134.239 171.107L134.079 170.13C134.075 170.111 134.082 170.092 134.095 170.077L134.774 169.386Z" fill="#FFD400"/>
<path fill-rule="evenodd" clip-rule="evenodd" d="M139.615 169.386C139.694 169.307 139.721 169.191 139.687 169.083C139.653 168.975 139.565 168.899 139.459 168.883L138.519 168.74C138.5 168.737 138.484 168.725 138.476 168.707L138.056 167.82C138.008 167.718 137.911 167.655 137.801 167.655C137.693 167.655 137.596 167.718 137.548 167.82L137.127 168.707C137.12 168.725 137.103 168.737 137.085 168.74L136.145 168.883C136.038 168.899 135.95 168.976 135.916 169.083C135.883 169.192 135.911 169.308 135.988 169.386L136.668 170.078C136.682 170.092 136.688 170.111 136.685 170.13L136.524 171.107C136.505 171.218 136.55 171.329 136.636 171.396C136.724 171.463 136.839 171.471 136.934 171.418L137.776 170.958C137.792 170.948 137.812 170.948 137.828 170.958L138.668 171.418C138.71 171.442 138.756 171.452 138.8 171.452C138.86 171.452 138.917 171.434 138.966 171.396C139.055 171.329 139.097 171.218 139.08 171.107L138.919 170.13C138.916 170.111 138.922 170.092 138.935 170.077L139.615 169.386Z" fill="#FFD400"/>
<path fill-rule="evenodd" clip-rule="evenodd" d="M144.118 169.386C144.196 169.307 144.223 169.191 144.19 169.083C144.157 168.975 144.068 168.899 143.961 168.883L143.022 168.74C143.003 168.737 142.988 168.725 142.979 168.707L142.559 167.82C142.51 167.718 142.413 167.655 142.305 167.655C142.195 167.655 142.098 167.718 142.051 167.82L141.63 168.707C141.622 168.725 141.606 168.737 141.588 168.74L140.649 168.883C140.541 168.899 140.453 168.976 140.419 169.083C140.386 169.192 140.414 169.308 140.491 169.386L141.171 170.078C141.185 170.092 141.19 170.111 141.188 170.13L141.026 171.107C141.009 171.218 141.052 171.329 141.14 171.396C141.227 171.463 141.342 171.471 141.438 171.418L142.278 170.958C142.294 170.948 142.314 170.948 142.33 170.958L143.171 171.418C143.213 171.442 143.258 171.452 143.303 171.452C143.362 171.452 143.42 171.434 143.47 171.396C143.558 171.329 143.601 171.218 143.582 171.107L143.422 170.13C143.419 170.111 143.425 170.092 143.437 170.077L144.118 169.386Z" fill="#FFD400"/>
<path fill-rule="evenodd" clip-rule="evenodd" d="M148.756 169.386C148.834 169.307 148.861 169.191 148.827 169.083C148.794 168.975 148.706 168.899 148.599 168.883L147.659 168.74C147.641 168.737 147.625 168.725 147.617 168.707L147.197 167.82C147.148 167.718 147.051 167.655 146.942 167.655C146.833 167.655 146.736 167.718 146.689 167.82L146.268 168.707C146.26 168.725 146.243 168.737 146.226 168.74L145.286 168.883C145.179 168.899 145.09 168.976 145.057 169.083C145.024 169.192 145.051 169.308 145.129 169.386L145.809 170.078C145.822 170.092 145.828 170.111 145.826 170.13L145.664 171.107C145.646 171.218 145.69 171.329 145.777 171.396C145.865 171.463 145.979 171.471 146.075 171.418L146.916 170.958C146.932 170.948 146.952 170.948 146.968 170.958L147.809 171.418C147.851 171.442 147.896 171.452 147.941 171.452C148 171.452 148.058 171.434 148.107 171.396C148.195 171.329 148.238 171.218 148.22 171.107L148.06 170.13C148.057 170.111 148.062 170.092 148.075 170.077L148.756 169.386Z" fill="#FFD400"/>
</svg>
